<svg xmlns="http://www.w3.org/2000/svg" width="400" height="250" viewBox="0 0 400 250">
  <rect width="400" height="250" fill="#f8f6f0"/>
  <!-- Left column: text -->
  <rect x="20" y="30" width="120" height="14" rx="2" fill="#c8a951"/>
  <rect x="20" y="55" width="180" height="10" rx="2" fill="#1e3a5f"/>
  <rect x="20" y="75" width="170" height="8" rx="2" fill="#999"/>
  <rect x="20" y="90" width="160" height="8" rx="2" fill="#999"/>
  <rect x="20" y="105" width="175" height="8" rx="2" fill="#999"/>
  <rect x="20" y="120" width="140" height="8" rx="2" fill="#999"/>
  <rect x="20" y="145" width="100" height="8" rx="2" fill="#999"/>
  <rect x="20" y="160" width="155" height="8" rx="2" fill="#999"/>
  <rect x="20" y="175" width="130" height="8" rx="2" fill="#999"/>
  <!-- Right column: dark card with photo -->
  <rect x="220" y="25" width="160" height="200" rx="10" fill="#1e3a5f"/>
  <circle cx="300" cy="90" r="40" fill="#2a4a6f" stroke="#c8a951" stroke-width="2"/>
  <circle cx="300" cy="80" r="12" fill="#c8a951" opacity="0.6"/>
  <rect x="288" y="95" width="24" height="16" rx="4" fill="#c8a951" opacity="0.4"/>
  <rect x="260" y="145" width="80" height="8" rx="2" fill="#fff" opacity="0.8"/>
  <rect x="265" y="160" width="70" height="6" rx="2" fill="#c8a951" opacity="0.6"/>
  <rect x="255" y="180" width="90" height="6" rx="2" fill="#fff" opacity="0.3"/>
  <rect x="260" y="192" width="80" height="6" rx="2" fill="#fff" opacity="0.3"/>
</svg>
