<svg xmlns="http://www.w3.org/2000/svg" width="400" height="250" viewBox="0 0 400 250">
  <rect width="400" height="250" fill="#f8f6f0"/>
  <!-- Heading -->
  <rect x="110" y="20" width="180" height="14" rx="2" fill="#1e3a5f"/>
  <!-- Row of badge/shield icons -->
  <g transform="translate(25,60)">
    <rect width="80" height="130" rx="8" fill="#fff" stroke="#e5e5e5" stroke-width="1.5"/>
    <!-- Shield shape -->
    <path d="M40,20 L60,28 L60,55 Q60,70 40,80 Q20,70 20,55 L20,28 Z" fill="#1e3a5f" opacity="0.15" stroke="#1e3a5f" stroke-width="1"/>
    <rect x="30" y="40" width="20" height="16" rx="2" fill="#c8a951"/>
    <rect x="15" y="95" width="50" height="7" rx="2" fill="#1e3a5f" opacity="0.7"/>
    <rect x="20" y="108" width="40" height="5" rx="2" fill="#999"/>
  </g>
  <g transform="translate(120,60)">
    <rect width="80" height="130" rx="8" fill="#fff" stroke="#e5e5e5" stroke-width="1.5"/>
    <path d="M40,20 L60,28 L60,55 Q60,70 40,80 Q20,70 20,55 L20,28 Z" fill="#c8a951" opacity="0.15" stroke="#c8a951" stroke-width="1"/>
    <rect x="30" y="40" width="20" height="16" rx="2" fill="#c8a951"/>
    <rect x="15" y="95" width="50" height="7" rx="2" fill="#1e3a5f" opacity="0.7"/>
    <rect x="20" y="108" width="40" height="5" rx="2" fill="#999"/>
  </g>
  <g transform="translate(215,60)">
    <rect width="80" height="130" rx="8" fill="#fff" stroke="#e5e5e5" stroke-width="1.5"/>
    <path d="M40,20 L60,28 L60,55 Q60,70 40,80 Q20,70 20,55 L20,28 Z" fill="#1e3a5f" opacity="0.15" stroke="#1e3a5f" stroke-width="1"/>
    <rect x="30" y="40" width="20" height="16" rx="2" fill="#c8a951"/>
    <rect x="15" y="95" width="50" height="7" rx="2" fill="#1e3a5f" opacity="0.7"/>
    <rect x="20" y="108" width="40" height="5" rx="2" fill="#999"/>
  </g>
  <g transform="translate(310,60)">
    <rect width="80" height="130" rx="8" fill="#fff" stroke="#e5e5e5" stroke-width="1.5"/>
    <path d="M40,20 L60,28 L60,55 Q60,70 40,80 Q20,70 20,55 L20,28 Z" fill="#c8a951" opacity="0.15" stroke="#c8a951" stroke-width="1"/>
    <rect x="30" y="40" width="20" height="16" rx="2" fill="#c8a951"/>
    <rect x="15" y="95" width="50" height="7" rx="2" fill="#1e3a5f" opacity="0.7"/>
    <rect x="20" y="108" width="40" height="5" rx="2" fill="#999"/>
  </g>
</svg>
