<svg xmlns="http://www.w3.org/2000/svg" width="400" height="250" viewBox="0 0 400 250">
  <rect width="400" height="250" fill="#f8f6f0"/>
  <!-- Timeline vertical line -->
  <line x1="60" y1="20" x2="60" y2="230" stroke="#e5e5e5" stroke-width="2"/>
  <!-- Item 1 -->
  <circle cx="60" cy="45" r="8" fill="#c8a951"/>
  <rect x="80" y="30" width="280" height="40" rx="6" fill="#fff" stroke="#e5e5e5" stroke-width="1"/>
  <rect x="92" y="38" width="140" height="8" rx="2" fill="#1e3a5f" opacity="0.7"/>
  <rect x="92" y="52" width="100" height="6" rx="2" fill="#999"/>
  <rect x="300" y="40" width="48" height="6" rx="2" fill="#999" opacity="0.5"/>
  <!-- Item 2 -->
  <circle cx="60" cy="105" r="8" fill="#1e3a5f"/>
  <rect x="80" y="90" width="280" height="40" rx="6" fill="#fff" stroke="#e5e5e5" stroke-width="1"/>
  <rect x="92" y="98" width="160" height="8" rx="2" fill="#1e3a5f" opacity="0.7"/>
  <rect x="92" y="112" width="110" height="6" rx="2" fill="#999"/>
  <rect x="300" y="100" width="48" height="6" rx="2" fill="#999" opacity="0.5"/>
  <!-- Item 3 -->
  <circle cx="60" cy="165" r="8" fill="#c8a951"/>
  <rect x="80" y="150" width="280" height="40" rx="6" fill="#fff" stroke="#e5e5e5" stroke-width="1"/>
  <rect x="92" y="158" width="120" height="8" rx="2" fill="#1e3a5f" opacity="0.7"/>
  <rect x="92" y="172" width="90" height="6" rx="2" fill="#999"/>
  <rect x="300" y="160" width="48" height="6" rx="2" fill="#999" opacity="0.5"/>
  <!-- Item 4 -->
  <circle cx="60" cy="220" r="6" fill="#e5e5e5"/>
  <rect x="80" y="212" width="200" height="16" rx="4" fill="#fff" stroke="#e5e5e5" stroke-width="1" opacity="0.5"/>
</svg>
