<svg xmlns="http://www.w3.org/2000/svg" width="400" height="250" viewBox="0 0 400 250">
  <rect width="400" height="250" fill="#f8f6f0"/>
  <!-- Heading -->
  <rect x="130" y="15" width="140" height="14" rx="2" fill="#1e3a5f"/>
  <!-- List items -->
  <g transform="translate(30,45)">
    <rect width="340" height="50" rx="6" fill="#fff" stroke="#e5e5e5" stroke-width="1"/>
    <rect x="10" y="10" width="36" height="30" rx="4" fill="#1e3a5f" opacity="0.1"/>
    <text x="28" y="22" font-family="sans-serif" font-size="8" fill="#1e3a5f" text-anchor="middle">15</text>
    <text x="28" y="34" font-family="sans-serif" font-size="6" fill="#999" text-anchor="middle">APR</text>
    <rect x="56" y="12" width="160" height="10" rx="2" fill="#1e3a5f" opacity="0.7"/>
    <rect x="56" y="28" width="120" height="7" rx="2" fill="#999"/>
    <rect x="280" y="16" width="44" height="18" rx="9" fill="#c8a951" opacity="0.2"/>
    <rect x="288" y="22" width="28" height="6" rx="2" fill="#c8a951"/>
  </g>
  <g transform="translate(30,105)">
    <rect width="340" height="50" rx="6" fill="#fff" stroke="#e5e5e5" stroke-width="1"/>
    <rect x="10" y="10" width="36" height="30" rx="4" fill="#1e3a5f" opacity="0.1"/>
    <text x="28" y="22" font-family="sans-serif" font-size="8" fill="#1e3a5f" text-anchor="middle">12</text>
    <text x="28" y="34" font-family="sans-serif" font-size="6" fill="#999" text-anchor="middle">APR</text>
    <rect x="56" y="12" width="140" height="10" rx="2" fill="#1e3a5f" opacity="0.7"/>
    <rect x="56" y="28" width="100" height="7" rx="2" fill="#999"/>
    <rect x="280" y="16" width="44" height="18" rx="9" fill="#1e3a5f" opacity="0.15"/>
    <rect x="288" y="22" width="28" height="6" rx="2" fill="#1e3a5f" opacity="0.5"/>
  </g>
  <g transform="translate(30,165)">
    <rect width="340" height="50" rx="6" fill="#fff" stroke="#e5e5e5" stroke-width="1"/>
    <rect x="10" y="10" width="36" height="30" rx="4" fill="#1e3a5f" opacity="0.1"/>
    <text x="28" y="22" font-family="sans-serif" font-size="8" fill="#1e3a5f" text-anchor="middle">10</text>
    <text x="28" y="34" font-family="sans-serif" font-size="6" fill="#999" text-anchor="middle">APR</text>
    <rect x="56" y="12" width="180" height="10" rx="2" fill="#1e3a5f" opacity="0.7"/>
    <rect x="56" y="28" width="130" height="7" rx="2" fill="#999"/>
    <rect x="280" y="16" width="44" height="18" rx="9" fill="#c8a951" opacity="0.2"/>
    <rect x="288" y="22" width="28" height="6" rx="2" fill="#c8a951"/>
  </g>
</svg>
