<svg xmlns="http://www.w3.org/2000/svg" width="400" height="250" viewBox="0 0 400 250">
  <rect width="400" height="250" fill="#f8f6f0"/>
  <!-- Small grid of icon+label items -->
  <g transform="translate(20,25)">
    <rect width="105" height="55" rx="4" fill="#fff" stroke="#e5e5e5" stroke-width="1"/>
    <rect x="10" y="10" width="20" height="16" rx="3" fill="#1e3a5f"/>
    <rect x="36" y="12" width="58" height="7" rx="2" fill="#1e3a5f" opacity="0.7"/>
    <rect x="36" y="24" width="45" height="5" rx="2" fill="#999"/>
  </g>
  <g transform="translate(140,25)">
    <rect width="105" height="55" rx="4" fill="#fff" stroke="#e5e5e5" stroke-width="1"/>
    <rect x="10" y="10" width="20" height="16" rx="3" fill="#c8a951"/>
    <rect x="36" y="12" width="58" height="7" rx="2" fill="#1e3a5f" opacity="0.7"/>
    <rect x="36" y="24" width="45" height="5" rx="2" fill="#999"/>
  </g>
  <g transform="translate(260,25)">
    <rect width="105" height="55" rx="4" fill="#fff" stroke="#e5e5e5" stroke-width="1"/>
    <rect x="10" y="10" width="20" height="16" rx="3" fill="#1e3a5f"/>
    <rect x="36" y="12" width="58" height="7" rx="2" fill="#1e3a5f" opacity="0.7"/>
    <rect x="36" y="24" width="45" height="5" rx="2" fill="#999"/>
  </g>
  <g transform="translate(20,95)">
    <rect width="105" height="55" rx="4" fill="#fff" stroke="#e5e5e5" stroke-width="1"/>
    <rect x="10" y="10" width="20" height="16" rx="3" fill="#c8a951"/>
    <rect x="36" y="12" width="58" height="7" rx="2" fill="#1e3a5f" opacity="0.7"/>
    <rect x="36" y="24" width="45" height="5" rx="2" fill="#999"/>
  </g>
  <g transform="translate(140,95)">
    <rect width="105" height="55" rx="4" fill="#fff" stroke="#e5e5e5" stroke-width="1"/>
    <rect x="10" y="10" width="20" height="16" rx="3" fill="#1e3a5f"/>
    <rect x="36" y="12" width="58" height="7" rx="2" fill="#1e3a5f" opacity="0.7"/>
    <rect x="36" y="24" width="45" height="5" rx="2" fill="#999"/>
  </g>
  <g transform="translate(260,95)">
    <rect width="105" height="55" rx="4" fill="#fff" stroke="#e5e5e5" stroke-width="1"/>
    <rect x="10" y="10" width="20" height="16" rx="3" fill="#c8a951"/>
    <rect x="36" y="12" width="58" height="7" rx="2" fill="#1e3a5f" opacity="0.7"/>
    <rect x="36" y="24" width="45" height="5" rx="2" fill="#999"/>
  </g>
  <g transform="translate(20,165)">
    <rect width="105" height="55" rx="4" fill="#fff" stroke="#e5e5e5" stroke-width="1"/>
    <rect x="10" y="10" width="20" height="16" rx="3" fill="#1e3a5f"/>
    <rect x="36" y="12" width="58" height="7" rx="2" fill="#1e3a5f" opacity="0.7"/>
    <rect x="36" y="24" width="45" height="5" rx="2" fill="#999"/>
  </g>
  <g transform="translate(140,165)">
    <rect width="105" height="55" rx="4" fill="#fff" stroke="#e5e5e5" stroke-width="1"/>
    <rect x="10" y="10" width="20" height="16" rx="3" fill="#c8a951"/>
    <rect x="36" y="12" width="58" height="7" rx="2" fill="#1e3a5f" opacity="0.7"/>
    <rect x="36" y="24" width="45" height="5" rx="2" fill="#999"/>
  </g>
  <g transform="translate(260,165)">
    <rect width="105" height="55" rx="4" fill="#fff" stroke="#e5e5e5" stroke-width="1"/>
    <rect x="10" y="10" width="20" height="16" rx="3" fill="#1e3a5f"/>
    <rect x="36" y="12" width="58" height="7" rx="2" fill="#1e3a5f" opacity="0.7"/>
    <rect x="36" y="24" width="45" height="5" rx="2" fill="#999"/>
  </g>
</svg>
