<svg xmlns="http://www.w3.org/2000/svg" width="400" height="250" viewBox="0 0 400 250">
  <rect width="400" height="250" fill="#f8f6f0"/>
  <!-- Heading -->
  <rect x="155" y="10" width="90" height="14" rx="2" fill="#1e3a5f"/>
  <!-- Grid of image thumbnails -->
  <rect x="20" y="35" width="115" height="90" rx="6" fill="#e5e5e5"/>
  <line x1="20" y1="35" x2="135" y2="125" stroke="#ccc" stroke-width="0.5"/>
  <line x1="135" y1="35" x2="20" y2="125" stroke="#ccc" stroke-width="0.5"/>
  <circle cx="55" cy="60" r="10" fill="#c8a951" opacity="0.4"/>
  <polygon points="40,110 77,70 100,95 135,65 135,125 20,125" fill="#1e3a5f" opacity="0.15"/>

  <rect x="145" y="35" width="115" height="90" rx="6" fill="#e5e5e5"/>
  <circle cx="180" cy="60" r="10" fill="#c8a951" opacity="0.4"/>
  <polygon points="165,110 200,70 225,95 260,65 260,125 145,125" fill="#1e3a5f" opacity="0.15"/>

  <rect x="270" y="35" width="115" height="90" rx="6" fill="#e5e5e5"/>
  <circle cx="305" cy="60" r="10" fill="#c8a951" opacity="0.4"/>
  <polygon points="290,110 320,70 345,95 385,65 385,125 270,125" fill="#1e3a5f" opacity="0.15"/>

  <rect x="20" y="135" width="115" height="90" rx="6" fill="#e5e5e5"/>
  <circle cx="55" cy="160" r="10" fill="#c8a951" opacity="0.4"/>
  <polygon points="40,210 77,170 100,195 135,165 135,225 20,225" fill="#1e3a5f" opacity="0.15"/>

  <rect x="145" y="135" width="115" height="90" rx="6" fill="#e5e5e5"/>
  <circle cx="180" cy="160" r="10" fill="#c8a951" opacity="0.4"/>
  <polygon points="165,210 200,170 225,195 260,165 260,225 145,225" fill="#1e3a5f" opacity="0.15"/>

  <rect x="270" y="135" width="115" height="90" rx="6" fill="#e5e5e5"/>
  <circle cx="305" cy="160" r="10" fill="#c8a951" opacity="0.4"/>
  <polygon points="290,210 320,170 345,195 385,165 385,225 270,225" fill="#1e3a5f" opacity="0.15"/>
</svg>
