<svg xmlns="http://www.w3.org/2000/svg" width="400" height="250" viewBox="0 0 400 250">
  <rect width="400" height="250" fill="#f8f6f0"/>
  <!-- Left column: Events -->
  <rect x="20" y="15" width="60" height="12" rx="2" fill="#1e3a5f"/>
  <rect x="20" y="35" width="170" height="60" rx="6" fill="#fff" stroke="#e5e5e5" stroke-width="1"/>
  <rect x="30" y="42" width="30" height="20" rx="3" fill="#c8a951" opacity="0.2"/>
  <rect x="35" y="47" width="20" height="10" rx="1" fill="#c8a951"/>
  <rect x="68" y="45" width="100" height="8" rx="2" fill="#1e3a5f" opacity="0.7"/>
  <rect x="68" y="58" width="80" height="6" rx="2" fill="#999"/>
  <rect x="68" y="72" width="50" height="6" rx="2" fill="#999"/>
  <rect x="20" y="105" width="170" height="60" rx="6" fill="#fff" stroke="#e5e5e5" stroke-width="1"/>
  <rect x="30" y="112" width="30" height="20" rx="3" fill="#c8a951" opacity="0.2"/>
  <rect x="35" y="117" width="20" height="10" rx="1" fill="#c8a951"/>
  <rect x="68" y="115" width="100" height="8" rx="2" fill="#1e3a5f" opacity="0.7"/>
  <rect x="68" y="128" width="80" height="6" rx="2" fill="#999"/>
  <rect x="68" y="142" width="50" height="6" rx="2" fill="#999"/>
  <!-- Right column: News -->
  <rect x="210" y="15" width="40" height="12" rx="2" fill="#1e3a5f"/>
  <rect x="210" y="35" width="170" height="85" rx="6" fill="#fff" stroke="#e5e5e5" stroke-width="1"/>
  <rect x="220" y="42" width="150" height="40" rx="3" fill="#e5e5e5"/>
  <rect x="220" y="90" width="120" height="8" rx="2" fill="#1e3a5f" opacity="0.7"/>
  <rect x="220" y="104" width="90" height="6" rx="2" fill="#999"/>
  <rect x="210" y="130" width="170" height="40" rx="6" fill="#fff" stroke="#e5e5e5" stroke-width="1"/>
  <rect x="220" y="137" width="120" height="8" rx="2" fill="#1e3a5f" opacity="0.7"/>
  <rect x="220" y="151" width="90" height="6" rx="2" fill="#999"/>
</svg>
