<svg xmlns="http://www.w3.org/2000/svg" width="400" height="250" viewBox="0 0 400 250">
  <rect width="400" height="250" fill="#f8f6f0"/>
  <!-- 4 icon+label cards -->
  <g transform="translate(20,70)">
    <rect width="75" height="110" rx="6" fill="#fff" stroke="#e5e5e5" stroke-width="1.5"/>
    <circle cx="37" cy="35" r="18" fill="#1e3a5f" opacity="0.15"/>
    <rect x="25" y="25" width="24" height="20" rx="3" fill="#1e3a5f"/>
    <rect x="14" y="70" width="48" height="8" rx="2" fill="#1e3a5f" opacity="0.7"/>
    <rect x="18" y="84" width="40" height="6" rx="2" fill="#999"/>
  </g>
  <g transform="translate(110,70)">
    <rect width="75" height="110" rx="6" fill="#fff" stroke="#e5e5e5" stroke-width="1.5"/>
    <circle cx="37" cy="35" r="18" fill="#c8a951" opacity="0.15"/>
    <rect x="25" y="25" width="24" height="20" rx="3" fill="#c8a951"/>
    <rect x="14" y="70" width="48" height="8" rx="2" fill="#1e3a5f" opacity="0.7"/>
    <rect x="18" y="84" width="40" height="6" rx="2" fill="#999"/>
  </g>
  <g transform="translate(200,70)">
    <rect width="75" height="110" rx="6" fill="#fff" stroke="#e5e5e5" stroke-width="1.5"/>
    <circle cx="37" cy="35" r="18" fill="#1e3a5f" opacity="0.15"/>
    <rect x="25" y="25" width="24" height="20" rx="3" fill="#1e3a5f"/>
    <rect x="14" y="70" width="48" height="8" rx="2" fill="#1e3a5f" opacity="0.7"/>
    <rect x="18" y="84" width="40" height="6" rx="2" fill="#999"/>
  </g>
  <g transform="translate(290,70)">
    <rect width="75" height="110" rx="6" fill="#fff" stroke="#e5e5e5" stroke-width="1.5"/>
    <circle cx="37" cy="35" r="18" fill="#c8a951" opacity="0.15"/>
    <rect x="25" y="25" width="24" height="20" rx="3" fill="#c8a951"/>
    <rect x="14" y="70" width="48" height="8" rx="2" fill="#1e3a5f" opacity="0.7"/>
    <rect x="18" y="84" width="40" height="6" rx="2" fill="#999"/>
  </g>
</svg>
