<svg xmlns="http://www.w3.org/2000/svg" width="400" height="250" viewBox="0 0 400 250">
  <rect width="400" height="250" fill="#f8f6f0"/>
  <!-- Heading -->
  <rect x="120" y="20" width="160" height="14" rx="2" fill="#1e3a5f"/>
  <rect x="150" y="42" width="100" height="8" rx="2" fill="#999"/>
  <!-- Row of logo placeholders -->
  <g transform="translate(20,75)">
    <rect width="65" height="50" rx="6" fill="#fff" stroke="#e5e5e5" stroke-width="1.5"/>
    <rect x="15" y="12" width="35" height="26" rx="3" fill="#e5e5e5"/>
  </g>
  <g transform="translate(95,75)">
    <rect width="65" height="50" rx="6" fill="#fff" stroke="#e5e5e5" stroke-width="1.5"/>
    <rect x="15" y="12" width="35" height="26" rx="3" fill="#e5e5e5"/>
  </g>
  <g transform="translate(170,75)">
    <rect width="65" height="50" rx="6" fill="#fff" stroke="#e5e5e5" stroke-width="1.5"/>
    <rect x="15" y="12" width="35" height="26" rx="3" fill="#e5e5e5"/>
  </g>
  <g transform="translate(245,75)">
    <rect width="65" height="50" rx="6" fill="#fff" stroke="#e5e5e5" stroke-width="1.5"/>
    <rect x="15" y="12" width="35" height="26" rx="3" fill="#e5e5e5"/>
  </g>
  <g transform="translate(320,75)">
    <rect width="65" height="50" rx="6" fill="#fff" stroke="#e5e5e5" stroke-width="1.5"/>
    <rect x="15" y="12" width="35" height="26" rx="3" fill="#e5e5e5"/>
  </g>
  <!-- Row 2 -->
  <g transform="translate(55,145)">
    <rect width="65" height="50" rx="6" fill="#fff" stroke="#e5e5e5" stroke-width="1.5"/>
    <rect x="15" y="12" width="35" height="26" rx="3" fill="#e5e5e5"/>
  </g>
  <g transform="translate(130,145)">
    <rect width="65" height="50" rx="6" fill="#fff" stroke="#e5e5e5" stroke-width="1.5"/>
    <rect x="15" y="12" width="35" height="26" rx="3" fill="#e5e5e5"/>
  </g>
  <g transform="translate(205,145)">
    <rect width="65" height="50" rx="6" fill="#fff" stroke="#e5e5e5" stroke-width="1.5"/>
    <rect x="15" y="12" width="35" height="26" rx="3" fill="#e5e5e5"/>
  </g>
  <g transform="translate(280,145)">
    <rect width="65" height="50" rx="6" fill="#fff" stroke="#e5e5e5" stroke-width="1.5"/>
    <rect x="15" y="12" width="35" height="26" rx="3" fill="#e5e5e5"/>
  </g>
</svg>
