<svg xmlns="http://www.w3.org/2000/svg" width="400" height="250" viewBox="0 0 400 250">
  <rect width="400" height="250" fill="#1e3a5f"/>
  <!-- Section heading -->
  <rect x="130" y="20" width="140" height="14" rx="2" fill="#c8a951"/>
  <rect x="150" y="42" width="100" height="8" rx="2" fill="#fff" opacity="0.4"/>
  <!-- 4 cards -->
  <g transform="translate(15,65)">
    <rect width="82" height="160" rx="8" fill="#fff" opacity="0.1" stroke="#c8a951" stroke-width="0.5"/>
    <circle cx="41" cy="35" r="16" fill="#c8a951" opacity="0.3"/>
    <rect x="29" y="28" width="24" height="14" rx="2" fill="#c8a951"/>
    <rect x="16" y="65" width="50" height="8" rx="2" fill="#fff" opacity="0.8"/>
    <rect x="11" y="82" width="60" height="5" rx="2" fill="#fff" opacity="0.3"/>
    <rect x="16" y="93" width="50" height="5" rx="2" fill="#fff" opacity="0.3"/>
    <rect x="21" y="120" width="40" height="20" rx="10" fill="#c8a951" opacity="0.6"/>
  </g>
  <g transform="translate(107,65)">
    <rect width="82" height="160" rx="8" fill="#fff" opacity="0.1" stroke="#c8a951" stroke-width="0.5"/>
    <circle cx="41" cy="35" r="16" fill="#c8a951" opacity="0.3"/>
    <rect x="29" y="28" width="24" height="14" rx="2" fill="#c8a951"/>
    <rect x="16" y="65" width="50" height="8" rx="2" fill="#fff" opacity="0.8"/>
    <rect x="11" y="82" width="60" height="5" rx="2" fill="#fff" opacity="0.3"/>
    <rect x="16" y="93" width="50" height="5" rx="2" fill="#fff" opacity="0.3"/>
    <rect x="21" y="120" width="40" height="20" rx="10" fill="#c8a951" opacity="0.6"/>
  </g>
  <g transform="translate(199,65)">
    <rect width="82" height="160" rx="8" fill="#fff" opacity="0.1" stroke="#c8a951" stroke-width="0.5"/>
    <circle cx="41" cy="35" r="16" fill="#c8a951" opacity="0.3"/>
    <rect x="29" y="28" width="24" height="14" rx="2" fill="#c8a951"/>
    <rect x="16" y="65" width="50" height="8" rx="2" fill="#fff" opacity="0.8"/>
    <rect x="11" y="82" width="60" height="5" rx="2" fill="#fff" opacity="0.3"/>
    <rect x="16" y="93" width="50" height="5" rx="2" fill="#fff" opacity="0.3"/>
    <rect x="21" y="120" width="40" height="20" rx="10" fill="#c8a951" opacity="0.6"/>
  </g>
  <g transform="translate(291,65)">
    <rect width="82" height="160" rx="8" fill="#fff" opacity="0.1" stroke="#c8a951" stroke-width="0.5"/>
    <circle cx="41" cy="35" r="16" fill="#c8a951" opacity="0.3"/>
    <rect x="29" y="28" width="24" height="14" rx="2" fill="#c8a951"/>
    <rect x="16" y="65" width="50" height="8" rx="2" fill="#fff" opacity="0.8"/>
    <rect x="11" y="82" width="60" height="5" rx="2" fill="#fff" opacity="0.3"/>
    <rect x="16" y="93" width="50" height="5" rx="2" fill="#fff" opacity="0.3"/>
    <rect x="21" y="120" width="40" height="20" rx="10" fill="#c8a951" opacity="0.6"/>
  </g>
</svg>
