<svg xmlns="http://www.w3.org/2000/svg" width="400" height="250" viewBox="0 0 400 250">
  <rect width="400" height="250" fill="#f8f6f0"/>
  <!-- Heading -->
  <rect x="140" y="10" width="120" height="14" rx="2" fill="#1e3a5f"/>
  <!-- 3x2 grid of icon+text cards -->
  <g transform="translate(20,35)">
    <rect width="110" height="90" rx="6" fill="#fff" stroke="#e5e5e5" stroke-width="1"/>
    <circle cx="25" cy="25" r="14" fill="#1e3a5f" opacity="0.1"/>
    <rect x="16" y="18" width="18" height="14" rx="2" fill="#1e3a5f"/>
    <rect x="12" y="50" width="86" height="8" rx="2" fill="#1e3a5f" opacity="0.7"/>
    <rect x="12" y="64" width="70" height="6" rx="2" fill="#999"/>
  </g>
  <g transform="translate(145,35)">
    <rect width="110" height="90" rx="6" fill="#fff" stroke="#e5e5e5" stroke-width="1"/>
    <circle cx="25" cy="25" r="14" fill="#c8a951" opacity="0.15"/>
    <rect x="16" y="18" width="18" height="14" rx="2" fill="#c8a951"/>
    <rect x="12" y="50" width="86" height="8" rx="2" fill="#1e3a5f" opacity="0.7"/>
    <rect x="12" y="64" width="70" height="6" rx="2" fill="#999"/>
  </g>
  <g transform="translate(270,35)">
    <rect width="110" height="90" rx="6" fill="#fff" stroke="#e5e5e5" stroke-width="1"/>
    <circle cx="25" cy="25" r="14" fill="#1e3a5f" opacity="0.1"/>
    <rect x="16" y="18" width="18" height="14" rx="2" fill="#1e3a5f"/>
    <rect x="12" y="50" width="86" height="8" rx="2" fill="#1e3a5f" opacity="0.7"/>
    <rect x="12" y="64" width="70" height="6" rx="2" fill="#999"/>
  </g>
  <g transform="translate(20,140)">
    <rect width="110" height="90" rx="6" fill="#fff" stroke="#e5e5e5" stroke-width="1"/>
    <circle cx="25" cy="25" r="14" fill="#c8a951" opacity="0.15"/>
    <rect x="16" y="18" width="18" height="14" rx="2" fill="#c8a951"/>
    <rect x="12" y="50" width="86" height="8" rx="2" fill="#1e3a5f" opacity="0.7"/>
    <rect x="12" y="64" width="70" height="6" rx="2" fill="#999"/>
  </g>
  <g transform="translate(145,140)">
    <rect width="110" height="90" rx="6" fill="#fff" stroke="#e5e5e5" stroke-width="1"/>
    <circle cx="25" cy="25" r="14" fill="#1e3a5f" opacity="0.1"/>
    <rect x="16" y="18" width="18" height="14" rx="2" fill="#1e3a5f"/>
    <rect x="12" y="50" width="86" height="8" rx="2" fill="#1e3a5f" opacity="0.7"/>
    <rect x="12" y="64" width="70" height="6" rx="2" fill="#999"/>
  </g>
  <g transform="translate(270,140)">
    <rect width="110" height="90" rx="6" fill="#fff" stroke="#e5e5e5" stroke-width="1"/>
    <circle cx="25" cy="25" r="14" fill="#c8a951" opacity="0.15"/>
    <rect x="16" y="18" width="18" height="14" rx="2" fill="#c8a951"/>
    <rect x="12" y="50" width="86" height="8" rx="2" fill="#1e3a5f" opacity="0.7"/>
    <rect x="12" y="64" width="70" height="6" rx="2" fill="#999"/>
  </g>
</svg>
